STARTFONT 2.1
FONT -DEC-Present Bullets-Medium-R-Normal--24-240-75-75-P-305-DEC-FontSpecific
SIZE 24 75 75
FONTBOUNDINGBOX 31 21 0 -2

STARTPROPERTIES 10
X_HEIGHT 16
COPYRIGHT "Copyright 1990,  Digital Equipment Corporation Created by Loree Nelson, The Artis Consultancy"
POINT_SIZE 240
WEIGHT 10
RESOLUTION_X 75
RESOLUTION_Y 75
QUAD_WIDTH 21
DEFAULT_CHAR 0
FONT_DESCENT 2
FONT_ASCENT 19
ENDPROPERTIES

CHARS 59

STARTCHAR space
ENCODING 32
SWIDTH 250 0
DWIDTH 6 0
BBX 1 1 0 0
BITMAP
00
ENDCHAR

STARTCHAR A
ENCODING 65
SWIDTH 704 0
DWIDTH 17 0
BBX 12 16 0 2
BITMAP
0020
0060
0070
00F0
00E0
FFF0
81D0
8190
9990
9B10
9B10
9E10
8E10
8610
8010
FFF0
ENDCHAR

STARTCHAR B
ENCODING 66
SWIDTH 616 0
DWIDTH 15 0
BBX 11 18 0 0
BITMAP
0060
0060
00E0
00E0
01E0
01E0
03C0
0380
0300
4700
4600
6600
6C00
FC00
7C00
3800
3800
1800
ENDCHAR

STARTCHAR C
ENCODING 67
SWIDTH 740 0
DWIDTH 18 0
BBX 12 16 0 1
BITMAP
8000
E000
3000
1C00
0700
0380
00E0
0030
0060
01C0
0380
0E00
1C00
7000
E000
8000
ENDCHAR

STARTCHAR D
ENCODING 68
SWIDTH 953 0
DWIDTH 23 0
BBX 21 19 1 0
BITMAP
002000
002000
005000
005000
005000
008800
008800
FF07F8
200020
100040
080080
060300
020200
020100
040100
047100
058C80
0E0380
080080
ENDCHAR

STARTCHAR E
ENCODING 69
SWIDTH 1048 0
DWIDTH 25 0
BBX 19 19 2 0
BITMAP
004000
004000
00E000
00E000
01F000
01F000
03F800
FFFFE0
7FFFC0
3FFF80
1FFF00
0FFE00
07FC00
07FC00
0FFE00
0FBE00
1E0F00
1C0700
300180
ENDCHAR

STARTCHAR F
ENCODING 70
SWIDTH 732 0
DWIDTH 18 0
BBX 14 19 0 0
BITMAP
0100
0100
0180
01C0
01C0
FFE0
FFF0
FFF0
FFF8
FFFC
FFF8
FFF0
FFF0
FFE0
FFC0
01C0
0180
0100
0100
ENDCHAR

STARTCHAR G
ENCODING 71
SWIDTH 732 0
DWIDTH 18 0
BBX 16 17 0 1
BITMAP
0100
0180
0140
0120
FF10
8008
8004
8002
8001
8002
8004
8008
8010
FF20
0140
0180
0100
ENDCHAR

STARTCHAR H
ENCODING 72
SWIDTH 1000 0
DWIDTH 24 0
BBX 25 5 0 0
BITMAP
000FFF80
000FFF80
00000000
FFFFFF80
FFFFFF80
ENDCHAR

STARTCHAR I
ENCODING 73
SWIDTH 787 0
DWIDTH 19 0
BBX 13 17 0 0
BITMAP
F000
FC00
FF00
FF80
0FC0
03E0
01F0
00F0
0078
0078
0078
0078
0078
0078
0078
0078
0078
ENDCHAR

STARTCHAR J
ENCODING 74
SWIDTH 756 0
DWIDTH 18 0
BBX 12 19 0 -2
BITMAP
C000
6010
6070
30E0
18C0
19C0
0D80
0F00
0700
0700
0F00
1D80
1980
3180
30C0
70C0
6060
0060
0040
ENDCHAR

STARTCHAR K
ENCODING 75
SWIDTH 935 0
DWIDTH 22 0
BBX 15 19 1 0
BITMAP
E00E
F01E
701C
3838
1C70
1C70
0EE0
07C0
0780
0780
0780
0FC0
0EE0
1C70
3870
3838
701C
F01E
E00E
ENDCHAR

STARTCHAR L
ENCODING 76
SWIDTH 1000 0
DWIDTH 24 0
BBX 21 18 1 0
BITMAP
080000
140000
260000
490000
928000
644000
2A2000
111800
0CC400
022200
011100
008CC0
004230
003128
0008C8
000488
000318
0000F8
ENDCHAR

STARTCHAR M
ENCODING 77
SWIDTH 1440 0
DWIDTH 35 0
BBX 30 14 0 -1
BITMAP
03FFFF00
07FFFF80
0FFFFFC0
1E0001E0
3DFFFEF0
7DFFFEF8
FDC00EFC
FB80077C
F78007BC
6F8007D8
1FC00FE0
3FFFFFF0
3FFFFFF0
3FFFFFF0
ENDCHAR

STARTCHAR N
ENCODING 78
SWIDTH 1292 0
DWIDTH 31 0
BBX 27 15 1 0
BITMAP
07FFFC00
1FFFFF00
7FFFFFC0
7FFFFFC0
FFFFFFE0
E3EEF8E0
F3FFF9E0
E3C678E0
47FFFC40
0F803E00
0FFFFE00
0FFFFE00
0FFFFE00
0FFFFE00
03001800
ENDCHAR

STARTCHAR O
ENCODING 79
SWIDTH 1488 0
DWIDTH 36 0
BBX 31 14 0 1
BITMAP
001FFFFE
3FE0001C
250000F0
25001700
45013800
4501C400
4600C400
4BC0C800
8B385000
8B073000
AA008800
EA007800
BC000C00
E0000000
ENDCHAR

STARTCHAR P
ENCODING 80
SWIDTH 1292 0
DWIDTH 31 0
BBX 23 10 0 3
BITMAP
00F000
070FFC
E80602
B031FE
B04F00
B050C0
BF8F80
B01080
B80F00
E7FF00
ENDCHAR

STARTCHAR Q
ENCODING 81
SWIDTH 844 0
DWIDTH 20 0
BBX 15 16 0 1
BITMAP
0C00
0C00
0E00
0600
0700
C700
4380
7FFE
7FFE
4380
C700
0700
0600
0E00
0C00
0C00
ENDCHAR

STARTCHAR R
ENCODING 82
SWIDTH 1195 0
DWIDTH 29 0
BBX 18 15 0 0
BITMAP
0FFC00
100200
100200
100200
300300
3FFF00
FFFFC0
E7F9C0
E7F9C0
FFFFC0
FFFFC0
FFFFC0
300300
300300
300300
ENDCHAR

STARTCHAR S
ENCODING 83
SWIDTH 1376 0
DWIDTH 33 0
BBX 28 14 1 0
BITMAP
FFFFFFF0
C0000030
B00000D0
88000110
86000610
81000810
80801010
80FFF010
83000810
84000410
88000310
90000090
A0000050
FFFFFFF0
ENDCHAR

STARTCHAR T
ENCODING 84
SWIDTH 1098 0
DWIDTH 26 0
BBX 21 20 0 -1
BITMAP
080080
480098
200020
0CF980
DFFFD8
1F07C0
1E01C0
0C2180
0C2080
0C2080
0C2080
0C2080
0C1080
060980
030300
03FE00
01FE00
030300
070380
070380
ENDCHAR

STARTCHAR U
ENCODING 85
SWIDTH 992 0
DWIDTH 24 0
BBX 19 19 1 0
BITMAP
004000
004000
104100
080200
01F800
060800
E404E0
080200
0BBA00
09B200
08A200
04A400
02A800
02A800
02A800
03F800
01F000
01F000
01F000
ENDCHAR

STARTCHAR V
ENCODING 86
SWIDTH 1175 0
DWIDTH 28 0
BBX 21 18 0 0
BITMAP
3FFE00
3FFE00
300600
300600
300600
300600
300600
300600
3FFE00
3FFE00
07F000
3FFFE0
3FFE18
3FFE70
3FFE40
401920
401938
FFFFB8
ENDCHAR

STARTCHAR W
ENCODING 87
SWIDTH 790 0
DWIDTH 19 0
BBX 14 16 0 0
BITMAP
0700
18E0
6018
C00C
B834
86C4
8104
8104
8104
8104
8104
8104
410C
3130
0D40
0380
ENDCHAR

STARTCHAR X
ENCODING 88
SWIDTH 860 0
DWIDTH 21 0
BBX 14 16 0 0
BITMAP
FFFC
FFFC
FEFC
FE7C
003C
001C
000C
0004
0004
000C
001C
003C
FE7C
FEFC
FFFC
FFFC
ENDCHAR

STARTCHAR Y
ENCODING 89
SWIDTH 804 0
DWIDTH 19 0
BBX 16 17 0 0
BITMAP
0100
0180
0140
0120
0150
FF68
C054
FF8A
C00B
FFCA
C054
FF68
0150
0120
0140
0180
0100
ENDCHAR

STARTCHAR Z
ENCODING 90
SWIDTH 1220 0
DWIDTH 29 0
BBX 21 15 1 0
BITMAP
E00000
5C0000
238000
107800
080700
0600E0
03FFF8
03FFF0
03FFC0
07FE00
0FF000
1F8000
3C0000
700000
800000
ENDCHAR

STARTCHAR bracketleft
ENCODING 91
SWIDTH 1260 0
DWIDTH 30 0
BBX 22 9 0 3
BITMAP
000600
000380
0000E0
0000F8
FFFFFC
FFFFF8
0000E0
000380
000600
ENDCHAR

STARTCHAR backslash
ENCODING 92
SWIDTH 915 0
DWIDTH 22 0
BBX 16 16 1 0
BITMAP
0240
1188
1188
7FFE
17D8
1D78
B7DD
7F6E
75FE
BFD5
1778
1DD8
7FFE
1188
1188
0240
ENDCHAR

STARTCHAR bracketright
ENCODING 93
SWIDTH 1292 0
DWIDTH 31 0
BBX 23 9 0 3
BITMAP
07FFFE
DFFFFE
DFFF00
DFEB80
D7DF80
DD6B80
DFDF80
DFEB00
0FFF00
ENDCHAR

STARTCHAR asciicircum
ENCODING 94
SWIDTH 940 0
DWIDTH 23 0
BBX 13 1 4 7
BITMAP
FFF8
ENDCHAR

STARTCHAR underscore
ENCODING 95
SWIDTH 1164 0
DWIDTH 28 0
BBX 22 1 3 7
BITMAP
FFFFFC
ENDCHAR

STARTCHAR grave
ENCODING 96
SWIDTH 720 0
DWIDTH 17 0
BBX 12 11 0 3
BITMAP
1F80
2040
4020
8010
8010
8010
8010
8010
4020
2040
1F80
ENDCHAR

STARTCHAR a
ENCODING 97
SWIDTH 720 0
DWIDTH 17 0
BBX 12 11 1 3
BITMAP
0F00
3FC0
7FE0
7FE0
FFF0
FFF0
FFF0
7FE0
7FE0
3FC0
0F00
ENDCHAR

STARTCHAR b
ENCODING 98
SWIDTH 1272 0
DWIDTH 31 0
BBX 26 11 1 2
BITMAP
00001C00
00007F00
00E0FF80
61F0FF80
F3F9FFC0
F3F9FFC0
63F9FFC0
01F0FF80
00E0FF80
00007F00
00001C00
ENDCHAR

STARTCHAR c
ENCODING 99
SWIDTH 556 0
DWIDTH 13 0
BBX 9 17 0 0
BITMAP
E000
F800
FC00
FE00
FF00
FF00
FF80
FF80
FF80
FF80
FF80
FF00
FF00
FE00
FC00
F800
E000
ENDCHAR

STARTCHAR d
ENCODING 100
SWIDTH 616 0
DWIDTH 15 0
BBX 9 18 2 0
BITMAP
E000
7800
1C00
0600
0300
0380
0180
0180
0180
0380
0380
0700
0F00
1E00
FE00
FC00
F800
E000
ENDCHAR

STARTCHAR e
ENCODING 101
SWIDTH 956 0
DWIDTH 23 0
BBX 18 17 1 0
BITMAP
018000
006000
001800
000600
000180
0000C0
000180
000700
000E00
003C00
007800
01F000
03E000
07C000
1F8000
3F0000
FE0000
ENDCHAR

STARTCHAR f
ENCODING 102
SWIDTH 932 0
DWIDTH 22 0
BBX 18 17 1 0
BITMAP
004000
00E000
00E000
01F000
01F000
03D800
039800
078C00
078C00
0F0600
0F0600
1F0300
1E0300
3E0180
3E0180
7C00C0
FFFFC0
ENDCHAR

STARTCHAR g
ENCODING 103
SWIDTH 956 0
DWIDTH 23 0
BBX 20 13 1 2
BITMAP
006000
00F000
00F000
01F800
03FC00
03FC00
07FE00
0FFF00
0FFF00
1FFF80
3FFFC0
7FFFE0
FFFFF0
ENDCHAR

STARTCHAR h
ENCODING 104
SWIDTH 620 0
DWIDTH 15 0
BBX 14 18 1 0
BITMAP
0300
0300
0780
0FC0
0FC0
1FE0
3FF0
7FF8
FFFC
7FF8
3FF0
1FE0
1FE0
0FC0
0780
0780
0300
0300
ENDCHAR

STARTCHAR i
ENCODING 105
SWIDTH 620 0
DWIDTH 15 0
BBX 14 18 1 0
BITMAP
0300
0300
0780
0EC0
0C40
1C60
3830
7018
F01C
7018
3830
1C60
1C60
0EC0
0780
0780
0300
0300
ENDCHAR

STARTCHAR j
ENCODING 106
SWIDTH 1023 0
DWIDTH 25 0
BBX 21 12 2 3
BITMAP
007000
01FC00
07FE00
0FFF80
3FFFE0
FFFFF8
FFFFF8
3FFFE0
0FFF80
07FF00
01FC00
007000
ENDCHAR

STARTCHAR k
ENCODING 107
SWIDTH 930 0
DWIDTH 22 0
BBX 20 19 1 0
BITMAP
006000
006000
006000
006000
006000
00F000
00F000
03FC00
FFFFF0
FFFFF0
03FC00
00F000
00F000
006000
006000
006000
006000
006000
006000
ENDCHAR

STARTCHAR l
ENCODING 108
SWIDTH 548 0
DWIDTH 13 0
BBX 9 18 1 0
BITMAP
8000
C000
E000
F000
F800
FC00
FE00
FF00
FF80
FF80
FF00
FE00
FC00
F800
F000
E000
C000
8000
ENDCHAR

STARTCHAR m
ENCODING 109
SWIDTH 896 0
DWIDTH 22 0
BBX 16 6 1 5
BITMAP
FFFF
7FFC
3FE0
3F80
1E00
1800
ENDCHAR

STARTCHAR n
ENCODING 110
SWIDTH 1000 0
DWIDTH 24 0
BBX 19 13 0 2
BITMAP
400000
E00000
7C0000
1FC000
03F800
00FF80
003FE0
001FC0
003F00
00F800
03C000
1F0000
180000
ENDCHAR

STARTCHAR o
ENCODING 111
SWIDTH 1000 0
DWIDTH 24 0
BBX 23 7 0 5
BITMAP
000C00
000E00
000F80
FFFFC0
FFFFF0
FFFFFC
FFFFFE
ENDCHAR

STARTCHAR p
ENCODING 112
SWIDTH 1096 0
DWIDTH 26 0
BBX 23 7 1 4
BITMAP
03FFFE
07FFFC
0FFFF8
1FFFF0
3FFFE0
7FFFC0
FFFF80
ENDCHAR

STARTCHAR q
ENCODING 113
SWIDTH 704 0
DWIDTH 17 0
BBX 14 19 0 0
BITMAP
00F4
01F4
01E8
01E8
03E8
03D0
07D0
07A0
07A0
0FA0
0F40
1F40
1E80
1E80
3E80
3D00
7D00
7A00
FA00
ENDCHAR

STARTCHAR r
ENCODING 114
SWIDTH 1036 0
DWIDTH 25 0
BBX 23 19 1 0
BITMAP
00000E
00000C
00001C
000018
000038
000038
000070
000070
0000F0
0000E0
0001E0
0001E0
0003C0
0003C0
0007C0
000780
3FFF80
7FFF00
FFFF00
ENDCHAR

STARTCHAR s
ENCODING 115
SWIDTH 1264 0
DWIDTH 30 0
BBX 24 19 2 0
BITMAP
000001
000001
000001
000003
000003
000007
000007
00000F
00001F
00003F
00007F
0000FF
0001FF
0003FF
0007FF
001FFF
007FFF
03FFFF
FFFFFF
ENDCHAR

STARTCHAR t
ENCODING 116
SWIDTH 884 0
DWIDTH 21 0
BBX 14 12 1 2
BITMAP
FFF0
8018
801C
801C
801C
801C
801C
801C
801C
801C
7FFC
3FFC
ENDCHAR

STARTCHAR u
ENCODING 117
SWIDTH 844 0
DWIDTH 20 0
BBX 13 11 1 4
BITMAP
FFF8
FFF8
FFF8
FFF8
FFF8
FFF8
FFF8
FFF8
FFF8
FFF8
FFF8
ENDCHAR

STARTCHAR v
ENCODING 118
SWIDTH 1176 0
DWIDTH 28 0
BBX 22 9 1 4
BITMAP
FFFFFC
FFFFFC
FFFFFC
FFFFFC
FFFFFC
FFFFFC
FFFFFC
FFFFFC
FFFFFC
ENDCHAR

STARTCHAR w
ENCODING 119
SWIDTH 1252 0
DWIDTH 30 0
BBX 23 11 0 2
BITMAP
FFF7B6
FFF7B6
FFF7B6
FFF7B6
FFF7B6
FFF7B6
FFF7B6
FFF7B6
FFF7B6
FFF7B6
FFF7B6
ENDCHAR

STARTCHAR x
ENCODING 120
SWIDTH 1244 0
DWIDTH 30 0
BBX 23 15 0 1
BITMAP
000100
000180
ADEFC0
ADEFE0
ADEFF0
ADEFF8
ADEFFC
ADEFFE
ADEFFC
ADEFF8
ADEFF0
ADEFE0
ADEFC0
000180
000100
ENDCHAR

STARTCHAR y
ENCODING 121
SWIDTH 864 0
DWIDTH 21 0
BBX 15 10 0 3
BITMAP
FFFA
87FA
87FA
87FA
87FA
87FA
87FA
87FA
87FA
FFFA
ENDCHAR

STARTCHAR z
ENCODING 122
SWIDTH 704 0
DWIDTH 17 0
BBX 11 10 0 3
BITMAP
FFE0
8020
8020
8020
8020
8020
8020
8020
8020
FFE0
ENDCHAR
ENDFONT
